<svg xmlns="http://www.w3.org/2000/svg" viewBox="0 0 1920 1200" font-family="'Inter', -apple-system, BlinkMacSystemFont, 'Segoe UI', sans-serif">
  <title>Gemba Board — Marker project. Epic Kanban with six columns, drag-to-stage in progress.</title>
  <defs>
    <style>
      .txt { fill: #2B2B2B; }
      .muted { fill: #6B6B6B; }
      .mono { font-family: 'JetBrains Mono', 'SF Mono', 'Menlo', 'Consolas', monospace; }
      .card { fill: #FFFFFF; stroke: #E5E0D5; }
      .card-shadow { fill: rgba(42,68,96,0.06); }
    </style>
  </defs>

  <!-- Background -->
  <rect width="1920" height="1200" fill="#FAFAF7"/>

  <!-- =============== TOP BAR =============== -->
  <g id="topbar">
    <rect x="0" y="0" width="1920" height="56" fill="#FFFFFF"/>
    <line x1="0" y1="56" x2="1920" y2="56" stroke="#E5E0D5" stroke-width="1"/>

    <!-- Sidebar toggle -->
    <g transform="translate(18,18)">
      <rect width="20" height="2" y="3" fill="#6B6B6B" rx="1"/>
      <rect width="20" height="2" y="9" fill="#6B6B6B" rx="1"/>
      <rect width="20" height="2" y="15" fill="#6B6B6B" rx="1"/>
    </g>

    <!-- Workspace switcher -->
    <g transform="translate(60,16)">
      <rect width="140" height="24" rx="6" fill="#F5EFE0" stroke="#E5E0D5"/>
      <text x="12" y="17" class="txt" font-size="13" font-weight="600">marker</text>
      <path d="M120 10 l4 5 4 -5" stroke="#6B6B6B" stroke-width="1.5" fill="none"/>
    </g>

    <!-- Mode pill (supervised, blue) -->
    <g transform="translate(212,16)">
      <rect width="96" height="24" rx="12" fill="#EAF2FB" stroke="#3B82C9"/>
      <circle cx="12" cy="12" r="4" fill="#3B82C9"/>
      <text x="22" y="16" fill="#2A4460" font-size="12" font-weight="600">supervised</text>
    </g>

    <!-- Phase pill (building) -->
    <g transform="translate(316,16)">
      <rect width="76" height="24" rx="12" fill="#F0EAE0" stroke="#C9A878"/>
      <text x="12" y="16" fill="#5A4519" font-size="12" font-weight="600">building</text>
    </g>

    <!-- Budget gauges -->
    <g transform="translate(404,12)">
      <text x="0" y="12" class="muted" font-size="10" font-weight="600" letter-spacing="0.5">AGENTS</text>
      <rect x="0" y="16" width="120" height="6" rx="3" fill="#E5E0D5"/>
      <rect x="0" y="16" width="27.6" height="6" rx="3" fill="#3B5B7A"/>
      <text x="126" y="22" class="txt" font-size="11" font-weight="600">23%</text>

      <text x="160" y="12" class="muted" font-size="10" font-weight="600" letter-spacing="0.5">ADVISORS</text>
      <rect x="160" y="16" width="120" height="6" rx="3" fill="#E5E0D5"/>
      <rect x="160" y="16" width="7.2" height="6" rx="3" fill="#8B6FB3"/>
      <text x="286" y="22" class="txt" font-size="11" font-weight="600">6%</text>

      <text x="0" y="36" class="muted" font-size="10">$18.42 agent · $1.51 advisor today</text>
    </g>

    <!-- Search -->
    <g transform="translate(1260,16)">
      <rect width="240" height="24" rx="6" fill="#FAFAF7" stroke="#E5E0D5"/>
      <circle cx="14" cy="12" r="5" fill="none" stroke="#6B6B6B" stroke-width="1.5"/>
      <line x1="18" y1="16" x2="22" y2="20" stroke="#6B6B6B" stroke-width="1.5"/>
      <text x="32" y="16" class="muted" font-size="12">Search or jump to…</text>
      <text x="200" y="16" class="muted mono" font-size="11">⌘K</text>
    </g>

    <!-- Gemba walk trigger (active w/ badge 3) -->
    <g transform="translate(1520,16)">
      <rect width="120" height="24" rx="6" fill="#FFF6D6" stroke="#D4A437"/>
      <circle cx="13" cy="12" r="3" fill="#D4A437"/>
      <text x="22" y="16" fill="#5A4519" font-size="12" font-weight="600">Walk active</text>
      <circle cx="104" cy="12" r="9" fill="#C84747"/>
      <text x="104" y="16" fill="#FFFFFF" font-size="11" font-weight="700" text-anchor="middle">3</text>
    </g>

    <!-- PM panel toggle -->
    <g transform="translate(1656,16)">
      <rect width="84" height="24" rx="6" fill="#FFFFFF" stroke="#E5E0D5"/>
      <text x="10" y="16" class="txt" font-size="12" font-weight="600">PM</text>
      <rect x="40" y="7" width="18" height="10" rx="2" fill="none" stroke="#3B5B7A" stroke-width="1.5"/>
      <rect x="40" y="13" width="18" height="4" rx="1" fill="#3B5B7A"/>
      <text x="64" y="16" class="muted mono" font-size="11">⌘P</text>
    </g>

    <!-- User menu -->
    <g transform="translate(1856,16)">
      <circle cx="12" cy="12" r="12" fill="#3B5B7A"/>
      <text x="12" y="16" fill="#FFFFFF" font-size="12" font-weight="700" text-anchor="middle">M</text>
    </g>
  </g>

  <!-- =============== ACTIVE-WALK BANNER =============== -->
  <g id="walk-banner">
    <rect x="0" y="56" width="1920" height="36" fill="#FFF6D6"/>
    <line x1="0" y1="92" x2="1920" y2="92" stroke="#D4A437" stroke-width="1"/>
    <circle cx="76" cy="74" r="4" fill="#D4A437"/>
    <text x="88" y="78" fill="#5A4519" font-size="13" font-weight="600">Gemba walk active</text>
    <text x="210" y="78" fill="#6B4A1A" font-size="12">·  2 of 5 decided  ·  active: mk-e6 Pocket API v1 deprecated</text>
    <g transform="translate(1760,64)">
      <rect width="64" height="20" rx="4" fill="#FFFFFF" stroke="#D4A437"/>
      <text x="32" y="14" fill="#5A4519" font-size="11" font-weight="600" text-anchor="middle">Resume</text>
    </g>
    <g transform="translate(1832,64)">
      <rect width="64" height="20" rx="4" fill="#FFFFFF" stroke="#E5E0D5"/>
      <text x="32" y="14" class="txt" font-size="11" font-weight="600" text-anchor="middle">End</text>
    </g>
  </g>

  <!-- =============== SIDEBAR (collapsed rail) =============== -->
  <g id="sidebar">
    <rect x="0" y="92" width="56" height="988" fill="#F5EFE0"/>
    <line x1="56" y1="92" x2="56" y2="1080" stroke="#E5E0D5"/>

    <!-- 7 nav icons in ratified order, Board active -->
    <!-- Board (active) -->
    <g transform="translate(8,104)">
      <rect width="40" height="40" rx="8" fill="#3B5B7A"/>
      <g transform="translate(10,10)" stroke="#FFFFFF" stroke-width="2" fill="none">
        <rect x="0" y="0" width="6" height="20"/>
        <rect x="7" y="0" width="6" height="20"/>
        <rect x="14" y="0" width="6" height="20"/>
      </g>
    </g>
    <!-- Gemba walks -->
    <g transform="translate(8,152)">
      <rect width="40" height="40" rx="8" fill="transparent"/>
      <g transform="translate(10,10)" stroke="#6B6B6B" stroke-width="2" fill="none">
        <circle cx="10" cy="10" r="9"/>
        <path d="M10 3 v7 l5 3"/>
      </g>
      <circle cx="32" cy="10" r="6" fill="#D4A437"/>
      <text x="32" y="14" fill="#FFFFFF" font-size="9" font-weight="700" text-anchor="middle">1</text>
    </g>
    <!-- Backlog -->
    <g transform="translate(8,200)">
      <g transform="translate(10,10)" stroke="#6B6B6B" stroke-width="2" fill="none">
        <rect x="0" y="1" width="20" height="18" rx="2"/>
        <line x1="4" y1="6" x2="16" y2="6"/>
        <line x1="4" y1="11" x2="16" y2="11"/>
        <line x1="4" y1="16" x2="12" y2="16"/>
      </g>
    </g>
    <!-- Grid -->
    <g transform="translate(8,248)">
      <g transform="translate(10,10)" stroke="#6B6B6B" stroke-width="2" fill="none">
        <rect x="0" y="0" width="8" height="8"/>
        <rect x="12" y="0" width="8" height="8"/>
        <rect x="0" y="12" width="8" height="8"/>
        <rect x="12" y="12" width="8" height="8"/>
      </g>
    </g>
    <!-- Escalations (with badge) -->
    <g transform="translate(8,296)">
      <g transform="translate(10,10)" stroke="#6B6B6B" stroke-width="2" fill="none">
        <path d="M10 0 L20 18 L0 18 Z"/>
        <line x1="10" y1="7" x2="10" y2="13"/>
        <circle cx="10" cy="16" r="0.5" fill="#6B6B6B"/>
      </g>
      <circle cx="32" cy="10" r="7" fill="#C84747"/>
      <text x="32" y="14" fill="#FFFFFF" font-size="9" font-weight="700" text-anchor="middle">3</text>
    </g>
    <!-- Project Config -->
    <g transform="translate(8,344)">
      <g transform="translate(10,10)" stroke="#6B6B6B" stroke-width="2" fill="none">
        <circle cx="10" cy="10" r="4"/>
        <path d="M10 0 v3 M10 17 v3 M0 10 h3 M17 10 h3 M3 3 l2 2 M15 15 l2 2 M3 17 l2 -2 M15 5 l2 -2"/>
      </g>
    </g>
    <!-- Settings -->
    <g transform="translate(8,392)">
      <g transform="translate(10,10)" stroke="#6B6B6B" stroke-width="2" fill="none">
        <path d="M10 0 L12 4 L17 3 L17 8 L20 10 L17 12 L17 17 L12 16 L10 20 L8 16 L3 17 L3 12 L0 10 L3 8 L3 3 L8 4 Z"/>
        <circle cx="10" cy="10" r="3"/>
      </g>
    </g>

    <!-- Collapse/Expand cue -->
    <g transform="translate(18,1020)">
      <path d="M0 0 l8 8 -8 8" stroke="#6B6B6B" stroke-width="2" fill="none"/>
    </g>
  </g>

  <!-- =============== BOARD AREA =============== -->
  <!-- 6 columns between x=72 and x=1902, spacing 6, width 300 -->
  <g id="board">

    <!-- Swimlane switcher / filters row -->
    <g transform="translate(72,108)">
      <text x="0" y="18" class="txt" font-size="18" font-weight="700">the Gemba</text>
      <text x="120" y="18" class="muted" font-size="13">swimlane:</text>
      <g transform="translate(186,4)">
        <rect width="160" height="20" rx="4" fill="#FFFFFF" stroke="#E5E0D5"/>
        <text x="10" y="14" class="txt" font-size="12" font-weight="600">by parent-epic</text>
        <path d="M145 9 l4 4 4 -4" stroke="#6B6B6B" stroke-width="1.5" fill="none"/>
      </g>
      <g transform="translate(360,0)">
        <text x="0" y="18" class="muted" font-size="13">view: Epic · </text>
        <text x="80" y="18" fill="#3B5B7A" font-size="13" font-weight="600">WorkItem</text>
      </g>

      <!-- Right-side actions -->
      <g transform="translate(1650,0)">
        <rect width="80" height="24" rx="6" fill="#FFFFFF" stroke="#E5E0D5"/>
        <text x="40" y="17" class="txt" font-size="12" font-weight="600" text-anchor="middle">Insights</text>
      </g>
      <g transform="translate(1740,0)">
        <rect width="90" height="24" rx="6" fill="#3B5B7A"/>
        <text x="45" y="17" fill="#FFFFFF" font-size="12" font-weight="600" text-anchor="middle">+ Epic</text>
      </g>
    </g>

    <!-- ==== COLUMN HEADERS ==== -->
    <g font-size="13" font-weight="700" fill="#2B2B2B">
      <!-- Backlog -->
      <g transform="translate(72,152)"><rect width="300" height="32" rx="8" fill="#F0EAE0"/><text x="14" y="21">Backlog</text><text x="280" y="21" class="muted" font-size="12" font-weight="500" text-anchor="end">3</text></g>
      <!-- Next Up -->
      <g transform="translate(378,152)"><rect width="300" height="32" rx="8" fill="#F0EAE0"/><text x="14" y="21">Next Up</text><text x="280" y="21" class="muted" font-size="12" font-weight="500" text-anchor="end">2</text></g>
      <!-- Staged -->
      <g transform="translate(684,152)"><rect width="300" height="32" rx="8" fill="#EAF2FB"/><text x="14" y="21">Staged</text><text x="280" y="21" class="muted" font-size="12" font-weight="500" text-anchor="end">1 / 3</text></g>
      <!-- In Progress -->
      <g transform="translate(990,152)"><rect width="300" height="32" rx="8" fill="#EAF2FB"/><text x="14" y="21">In Progress</text><text x="280" y="21" class="muted" font-size="12" font-weight="500" text-anchor="end">1 / 3</text></g>
      <!-- Done -->
      <g transform="translate(1296,152)"><rect width="300" height="32" rx="8" fill="#E7F1EA"/><text x="14" y="21">Done</text><text x="280" y="21" class="muted" font-size="12" font-weight="500" text-anchor="end">1</text></g>
      <!-- Canceled -->
      <g transform="translate(1602,152)"><rect width="300" height="32" rx="8" fill="#F5EFE0"/><text x="14" y="21">Canceled</text><text x="280" y="21" class="muted" font-size="12" font-weight="500" text-anchor="end">0</text></g>
    </g>

    <!-- ==== CARDS ==== -->
    <!-- Backlog: mk-e6 (escalation dot), mk-e7, mk-e8 (purview dot) -->

    <!-- mk-e6 -->
    <g transform="translate(72,196)">
      <rect width="300" height="128" rx="12" class="card-shadow" transform="translate(1,2)"/>
      <rect width="300" height="128" rx="12" class="card"/>
      <rect x="0" y="0" width="4" height="128" rx="2" fill="#8B4F8F"/>
      <text x="18" y="24" class="txt mono" font-size="11" font-weight="600" fill="#6B6B6B">mk-e6 · P2</text>
      <circle cx="280" cy="22" r="7" fill="#C84747"/>
      <text x="280" y="26" fill="#FFFFFF" font-size="10" font-weight="700" text-anchor="middle">1</text>
      <text x="18" y="52" class="txt" font-size="14" font-weight="600">Pocket / Raindrop</text>
      <text x="18" y="70" class="txt" font-size="14" font-weight="600">import</text>
      <text x="18" y="90" class="muted" font-size="11">0/4 ready · 4 open</text>
      <!-- perspective icons (3 dimmed) -->
      <g transform="translate(18,100)" opacity="0.55" font-size="13">
        <text x="0" y="12">📐</text>
        <text x="18" y="12">🔍</text>
        <text x="36" y="12">🔒</text>
      </g>
      <!-- escalation caption -->
      <text x="60" y="112" fill="#C84747" font-size="10" font-weight="600">Pocket API v1 deprecated</text>
    </g>

    <!-- mk-e7 -->
    <g transform="translate(72,340)">
      <rect width="300" height="96" rx="12" class="card-shadow" transform="translate(1,2)"/>
      <rect width="300" height="96" rx="12" class="card"/>
      <rect x="0" y="0" width="4" height="96" rx="2" fill="#8B4F8F"/>
      <text x="18" y="24" class="txt mono" font-size="11" font-weight="600" fill="#6B6B6B">mk-e7 · P2</text>
      <text x="18" y="52" class="txt" font-size="14" font-weight="600">PWA / mobile polish</text>
      <text x="18" y="76" class="muted" font-size="11">0/6 ready · 6 open</text>
    </g>

    <!-- mk-e8 (purview violation) -->
    <g transform="translate(72,452)">
      <rect width="300" height="124" rx="12" class="card-shadow" transform="translate(1,2)"/>
      <rect width="300" height="124" rx="12" class="card"/>
      <rect x="0" y="0" width="4" height="124" rx="2" fill="#5F4F8F"/>
      <text x="18" y="24" class="txt mono" font-size="11" font-weight="600" fill="#6B6B6B">mk-e8 · P3</text>
      <!-- purview violation dot -->
      <circle cx="280" cy="22" r="7" fill="#FFF6D6" stroke="#D4A437" stroke-width="2"/>
      <text x="280" y="26" fill="#5A4519" font-size="10" font-weight="700" text-anchor="middle">!</text>
      <text x="18" y="52" class="txt" font-size="14" font-weight="600">Team sharing</text>
      <text x="18" y="76" class="muted" font-size="11">0/4 ready · 4 open</text>
      <text x="18" y="98" fill="#6B4A1A" font-size="10" font-weight="600">Blocked · Security Purview review</text>
      <text x="18" y="112" fill="#6B4A1A" font-size="10">required before staging</text>
    </g>

    <!-- Next Up: mk-e4, mk-e5 -->

    <!-- mk-e4 (cursor is mid-drag on this; we'll render the ghost in column 3 and draw source card here dim) -->
    <g transform="translate(378,196)" opacity="0.55">
      <rect width="300" height="120" rx="12" class="card"/>
      <rect x="0" y="0" width="4" height="120" rx="2" fill="#C87947"/>
      <text x="18" y="24" class="txt mono" font-size="11" font-weight="600" fill="#6B6B6B">mk-e4 · P1</text>
      <text x="18" y="52" class="txt" font-size="14" font-weight="600">Browser extension</text>
      <text x="18" y="76" class="muted" font-size="11">3/5 ready · 2 blocked</text>
      <text x="18" y="100" fill="#C84747" font-size="10" font-weight="600">blocked on mk-e1 (cleared)</text>
    </g>

    <!-- mk-e5 -->
    <g transform="translate(378,332)">
      <rect width="300" height="108" rx="12" class="card-shadow" transform="translate(1,2)"/>
      <rect width="300" height="108" rx="12" class="card"/>
      <rect x="0" y="0" width="4" height="108" rx="2" fill="#C87947"/>
      <text x="18" y="24" class="txt mono" font-size="11" font-weight="600" fill="#6B6B6B">mk-e5 · P1</text>
      <text x="18" y="52" class="txt" font-size="14" font-weight="600">Full-text search</text>
      <text x="18" y="76" class="muted" font-size="11">3/3 ready · eligible to stage</text>
      <g transform="translate(18,86)" opacity="0.55" font-size="13">
        <text x="0" y="12">📐</text>
      </g>
    </g>

    <!-- Staged: mk-e3 (parallel group A) -->
    <g transform="translate(684,196)">
      <rect width="300" height="140" rx="12" class="card-shadow" transform="translate(1,2)"/>
      <rect width="300" height="140" rx="12" class="card"/>
      <rect x="0" y="0" width="4" height="140" rx="2" fill="#C87947"/>
      <text x="18" y="24" class="txt mono" font-size="11" font-weight="600" fill="#6B6B6B">mk-e3 · P1</text>
      <!-- parallel group glyph A -->
      <circle cx="252" cy="20" r="10" fill="#EAF2FB" stroke="#3B82C9"/>
      <text x="252" y="24" fill="#2A4460" font-size="11" font-weight="700" text-anchor="middle">A</text>
      <text x="18" y="52" class="txt" font-size="14" font-weight="600">CLI (marker binary)</text>
      <text x="18" y="76" class="muted" font-size="11">4/4 ready · all staged</text>
      <!-- token budget gauge -->
      <text x="18" y="100" class="muted" font-size="10" letter-spacing="0.5" font-weight="600">EPIC TOKEN BUDGET</text>
      <rect x="18" y="106" width="264" height="6" rx="3" fill="#E5E0D5"/>
      <rect x="18" y="106" width="66" height="6" rx="3" fill="#5A9E6F"/>
      <text x="282" y="112" class="muted" font-size="10" text-anchor="end">25% · ~60k est</text>
      <text x="18" y="130" fill="#2A4460" font-size="10" font-weight="600">files: cmd/marker/*</text>
    </g>

    <!-- Ghost drop target for mk-e4 drag -->
    <g transform="translate(684,352)">
      <rect width="300" height="120" rx="12" fill="#EAF2FB" stroke="#3B82C9" stroke-width="2" stroke-dasharray="6 4"/>
      <text x="150" y="54" fill="#2A4460" font-size="13" font-weight="600" text-anchor="middle">mk-e4 · Browser extension</text>
      <text x="150" y="74" fill="#3B82C9" font-size="11" font-weight="600" text-anchor="middle">Drop to Stage</text>
      <text x="150" y="92" fill="#2A4460" font-size="10" text-anchor="middle" opacity="0.7">nonce-gated · supervised mode</text>
    </g>

    <!-- In Progress: mk-e2 (parallel A + token gauge at 62%) -->
    <g transform="translate(990,196)">
      <rect width="300" height="168" rx="12" class="card-shadow" transform="translate(1,2)"/>
      <rect width="300" height="168" rx="12" class="card"/>
      <rect x="0" y="0" width="4" height="168" rx="2" fill="#C84747"/>
      <text x="18" y="24" class="txt mono" font-size="11" font-weight="600" fill="#6B6B6B">mk-e2 · P0</text>
      <!-- parallel group A -->
      <circle cx="252" cy="20" r="10" fill="#EAF2FB" stroke="#3B82C9"/>
      <text x="252" y="24" fill="#2A4460" font-size="11" font-weight="700" text-anchor="middle">A</text>
      <!-- stale marker -->
      <circle cx="278" cy="20" r="5" fill="#D4A437"/>
      <text x="18" y="52" class="txt" font-size="14" font-weight="600">Web UI</text>
      <text x="18" y="70" class="txt" font-size="14" font-weight="600">(Next.js + Tailwind)</text>
      <text x="18" y="94" class="muted" font-size="11">2/7 done · 3 in progress · 2 ready</text>
      <text x="18" y="116" class="muted" font-size="10" letter-spacing="0.5" font-weight="600">EPIC TOKEN BUDGET</text>
      <rect x="18" y="122" width="264" height="6" rx="3" fill="#E5E0D5"/>
      <rect x="18" y="122" width="163.7" height="6" rx="3" fill="#D4A437"/>
      <text x="282" y="128" class="muted" font-size="10" text-anchor="end">62% · ~87k / 140k</text>
      <!-- perspective -->
      <g transform="translate(18,138)" opacity="0.55" font-size="13">
        <text x="0" y="12">🎨</text>
        <text x="18" y="12">🔍</text>
      </g>
      <text x="60" y="150" fill="#D4A437" font-size="10" font-weight="600">mk-e2.4 stale · 14m idle</text>
    </g>

    <!-- Done: mk-e1 -->
    <g transform="translate(1296,196)">
      <rect width="300" height="140" rx="12" class="card-shadow" transform="translate(1,2)"/>
      <rect width="300" height="140" rx="12" class="card"/>
      <!-- green stripe across top -->
      <rect x="0" y="0" width="300" height="6" rx="0" fill="#5A9E6F"/>
      <rect x="0" y="6" width="4" height="134" rx="2" fill="#C84747"/>
      <text x="18" y="30" class="txt mono" font-size="11" font-weight="600" fill="#6B6B6B">mk-e1 · P0</text>
      <text x="18" y="58" class="txt" font-size="14" font-weight="600">Core API + persistence</text>
      <text x="18" y="82" class="muted" font-size="11">5/5 done · shipped</text>
      <text x="18" y="104" class="muted" font-size="10" letter-spacing="0.5" font-weight="600">TOKEN COST</text>
      <text x="18" y="124" fill="#5A9E6F" font-size="13" font-weight="700" class="mono">23,412</text>
      <text x="70" y="124" class="muted" font-size="11">tokens · $0.31</text>
    </g>

    <!-- Canceled: empty state -->
    <g transform="translate(1602,232)">
      <text x="150" y="40" class="muted" font-size="12" text-anchor="middle" font-style="italic">Nothing canceled yet.</text>
      <text x="150" y="58" class="muted" font-size="11" text-anchor="middle">Canceled Epics land here.</text>
    </g>
  </g>

  <!-- =============== CURSOR / DRAG GHOST ICON =============== -->
  <!-- Mike's cursor dragging mk-e4 — position between col 2 and 3 -->
  <g id="cursor" transform="translate(740,460)">
    <!-- drag ghost miniature of mk-e4 -->
    <g opacity="0.8">
      <rect x="-160" y="-20" width="220" height="72" rx="10" fill="#FFFFFF" stroke="#3B82C9" stroke-width="2"/>
      <rect x="-160" y="-20" width="3" height="72" rx="1" fill="#C87947"/>
      <text x="-145" y="0" class="txt mono" font-size="10" font-weight="600" fill="#6B6B6B">mk-e4 · P1</text>
      <text x="-145" y="22" class="txt" font-size="13" font-weight="600">Browser extension</text>
      <text x="-145" y="42" class="muted" font-size="10">3/5 ready · 2 blocked</text>
    </g>
    <!-- arrow cursor -->
    <path d="M0 0 L0 20 L5 15 L8 22 L11 20 L8 13 L15 13 Z" fill="#2B2B2B" stroke="#FFFFFF" stroke-width="1.2"/>
  </g>

  <!-- =============== PM PANEL (collapsed-quick state) =============== -->
  <g id="pm-panel">
    <rect x="56" y="1080" width="1864" height="120" fill="#FFFFFF"/>
    <line x1="56" y1="1080" x2="1920" y2="1080" stroke="#E5E0D5"/>

    <!-- Header -->
    <g transform="translate(72,1094)">
      <rect width="36" height="24" rx="6" fill="#F0EAE0"/>
      <text x="18" y="17" fill="#5A4519" font-size="14" font-weight="700" text-anchor="middle">PM</text>
      <text x="48" y="17" class="txt" font-size="13" font-weight="700">Project Manager</text>
      <rect x="170" y="2" width="88" height="20" rx="10" fill="#EDE5F2" stroke="#8B6FB3"/>
      <text x="214" y="16" fill="#5F4F8F" font-size="11" font-weight="600" text-anchor="middle">Coach</text>
      <text x="276" y="17" class="muted" font-size="12">$0.17 today · active 2m ago</text>

      <!-- right: cost total + collapse arrow -->
      <text x="1640" y="17" class="muted" font-size="12" text-anchor="end">$18.42 agents · $1.51 advisors today</text>
      <g transform="translate(1660,0)">
        <rect width="80" height="22" rx="4" fill="#FFFFFF" stroke="#E5E0D5"/>
        <text x="40" y="15" class="muted" font-size="11" text-anchor="middle">Expand ⌘P</text>
      </g>
    </g>

    <!-- Quick action buttons (context = Board) -->
    <g transform="translate(72,1136)">
      <text x="0" y="12" class="muted" font-size="11" letter-spacing="0.5" font-weight="600">QUICK ACTIONS · BOARD CONTEXT</text>
      <g transform="translate(0,20)">
        <rect width="180" height="36" rx="8" fill="#FFFFFF" stroke="#3B5B7A"/>
        <text x="14" y="23" class="txt" font-size="13" font-weight="600">Recommend order</text>
        <text x="14" y="32" class="muted" font-size="10">Consult · ~$0.04</text>
      </g>
      <g transform="translate(190,20)">
        <rect width="180" height="36" rx="8" fill="#FFFFFF" stroke="#3B5B7A"/>
        <text x="14" y="23" class="txt" font-size="13" font-weight="600">What remains</text>
        <text x="14" y="32" class="muted" font-size="10">Ask PM · ~$0.02</text>
      </g>
      <g transform="translate(380,20)">
        <rect width="180" height="36" rx="8" fill="#FFFFFF" stroke="#3B5B7A"/>
        <text x="14" y="23" class="txt" font-size="13" font-weight="600">Trim to budget</text>
        <text x="14" y="32" class="muted" font-size="10">Consult · ~$0.06</text>
      </g>
      <g transform="translate(570,20)">
        <rect width="180" height="36" rx="8" fill="#FFFFFF" stroke="#E5E0D5"/>
        <text x="14" y="23" class="txt" font-size="13" font-weight="600">Dispatch readiness</text>
        <text x="14" y="32" class="muted" font-size="10">Consult · ~$0.03</text>
      </g>

      <!-- Input on right -->
      <g transform="translate(800,20)">
        <rect width="1050" height="36" rx="8" fill="#FAFAF7" stroke="#E5E0D5"/>
        <text x="14" y="23" class="muted" font-size="13" font-style="italic">Ask a Coach or consult a Manager…</text>
        <g transform="translate(980,6)">
          <rect width="60" height="24" rx="6" fill="#3B5B7A"/>
          <text x="30" y="16" fill="#FFFFFF" font-size="11" font-weight="600" text-anchor="middle">Send ⌘↵</text>
        </g>
      </g>
    </g>
  </g>
</svg>
