<svg xmlns="http://www.w3.org/2000/svg" viewBox="0 0 1920 1200" font-family="'Inter', -apple-system, BlinkMacSystemFont, 'Segoe UI', sans-serif">
  <title>Gemba walk — active decision on mk-e6 Pocket API v1 deprecation. Two-pane: agenda + chat.</title>
  <defs>
    <style>
      .txt { fill: #2B2B2B; }
      .muted { fill: #6B6B6B; }
      .mono { font-family: 'JetBrains Mono', 'SF Mono', 'Menlo', 'Consolas', monospace; }
      .card-shadow { fill: rgba(42,68,96,0.06); }
    </style>
  </defs>

  <rect width="1920" height="1200" fill="#FAFAF7"/>

  <!-- =============== TOP BAR (reuse) =============== -->
  <g id="topbar">
    <rect width="1920" height="56" fill="#FFFFFF"/>
    <line x1="0" y1="56" x2="1920" y2="56" stroke="#E5E0D5"/>
    <!-- sidebar toggle -->
    <g transform="translate(18,18)">
      <rect width="20" height="2" y="3" fill="#6B6B6B" rx="1"/>
      <rect width="20" height="2" y="9" fill="#6B6B6B" rx="1"/>
      <rect width="20" height="2" y="15" fill="#6B6B6B" rx="1"/>
    </g>
    <g transform="translate(60,16)">
      <rect width="140" height="24" rx="6" fill="#F5EFE0" stroke="#E5E0D5"/>
      <text x="12" y="17" class="txt" font-size="13" font-weight="600">marker</text>
      <path d="M120 10 l4 5 4 -5" stroke="#6B6B6B" stroke-width="1.5" fill="none"/>
    </g>
    <g transform="translate(212,16)">
      <rect width="96" height="24" rx="12" fill="#EAF2FB" stroke="#3B82C9"/>
      <circle cx="12" cy="12" r="4" fill="#3B82C9"/>
      <text x="22" y="16" fill="#2A4460" font-size="12" font-weight="600">supervised</text>
    </g>
    <g transform="translate(316,16)">
      <rect width="76" height="24" rx="12" fill="#F0EAE0" stroke="#C9A878"/>
      <text x="12" y="16" fill="#5A4519" font-size="12" font-weight="600">building</text>
    </g>
    <g transform="translate(404,12)">
      <text x="0" y="12" class="muted" font-size="10" font-weight="600" letter-spacing="0.5">AGENTS</text>
      <rect x="0" y="16" width="120" height="6" rx="3" fill="#E5E0D5"/>
      <rect x="0" y="16" width="27.6" height="6" rx="3" fill="#3B5B7A"/>
      <text x="126" y="22" class="txt" font-size="11" font-weight="600">23%</text>
      <text x="160" y="12" class="muted" font-size="10" font-weight="600" letter-spacing="0.5">ADVISORS</text>
      <rect x="160" y="16" width="120" height="6" rx="3" fill="#E5E0D5"/>
      <rect x="160" y="16" width="7.2" height="6" rx="3" fill="#8B6FB3"/>
      <text x="286" y="22" class="txt" font-size="11" font-weight="600">6%</text>
    </g>
    <g transform="translate(1260,16)">
      <rect width="240" height="24" rx="6" fill="#FAFAF7" stroke="#E5E0D5"/>
      <circle cx="14" cy="12" r="5" fill="none" stroke="#6B6B6B" stroke-width="1.5"/>
      <line x1="18" y1="16" x2="22" y2="20" stroke="#6B6B6B" stroke-width="1.5"/>
      <text x="32" y="16" class="muted" font-size="12">Search or jump to…</text>
      <text x="200" y="16" class="muted mono" font-size="11">⌘K</text>
    </g>
    <g transform="translate(1520,16)">
      <rect width="120" height="24" rx="6" fill="#FFF6D6" stroke="#D4A437"/>
      <circle cx="13" cy="12" r="3" fill="#D4A437"/>
      <text x="22" y="16" fill="#5A4519" font-size="12" font-weight="600">Walk active</text>
      <circle cx="104" cy="12" r="9" fill="#C84747"/>
      <text x="104" y="16" fill="#FFFFFF" font-size="11" font-weight="700" text-anchor="middle">3</text>
    </g>
    <g transform="translate(1656,16)">
      <rect width="84" height="24" rx="6" fill="#EAF2FB" stroke="#3B82C9"/>
      <text x="10" y="16" fill="#2A4460" font-size="12" font-weight="600">PM walk</text>
      <text x="64" y="16" class="muted mono" font-size="11">⌘P</text>
    </g>
    <g transform="translate(1856,16)">
      <circle cx="12" cy="12" r="12" fill="#3B5B7A"/>
      <text x="12" y="16" fill="#FFFFFF" font-size="12" font-weight="700" text-anchor="middle">M</text>
    </g>
  </g>

  <!-- =============== WALK BANNER =============== -->
  <g id="walk-banner">
    <rect x="0" y="56" width="1920" height="36" fill="#FFF6D6"/>
    <line x1="0" y1="92" x2="1920" y2="92" stroke="#D4A437"/>
    <circle cx="76" cy="74" r="4" fill="#D4A437"/>
    <text x="88" y="78" fill="#5A4519" font-size="13" font-weight="600">Gemba walk in progress</text>
    <text x="242" y="78" fill="#6B4A1A" font-size="12">·  2 of 5 decided  ·  started 6m ago by Mike  ·  $0.04 this walk</text>
    <g transform="translate(1760,64)">
      <rect width="64" height="20" rx="4" fill="#FFFFFF" stroke="#D4A437"/>
      <text x="32" y="14" fill="#5A4519" font-size="11" font-weight="600" text-anchor="middle">Pause</text>
    </g>
    <g transform="translate(1832,64)">
      <rect width="64" height="20" rx="4" fill="#FFFFFF" stroke="#E5E0D5"/>
      <text x="32" y="14" class="txt" font-size="11" font-weight="600" text-anchor="middle">End walk</text>
    </g>
  </g>

  <!-- =============== SIDEBAR (collapsed) =============== -->
  <g id="sidebar">
    <rect x="0" y="92" width="56" height="1108" fill="#F5EFE0"/>
    <line x1="56" y1="92" x2="56" y2="1200" stroke="#E5E0D5"/>
    <!-- Board -->
    <g transform="translate(8,104)">
      <rect width="40" height="40" rx="8" fill="transparent"/>
      <g transform="translate(10,10)" stroke="#6B6B6B" stroke-width="2" fill="none">
        <rect x="0" y="0" width="6" height="20"/>
        <rect x="7" y="0" width="6" height="20"/>
        <rect x="14" y="0" width="6" height="20"/>
      </g>
    </g>
    <!-- Gemba walks (active) -->
    <g transform="translate(8,152)">
      <rect width="40" height="40" rx="8" fill="#3B5B7A"/>
      <g transform="translate(10,10)" stroke="#FFFFFF" stroke-width="2" fill="none">
        <circle cx="10" cy="10" r="9"/>
        <path d="M10 3 v7 l5 3"/>
      </g>
      <circle cx="32" cy="10" r="6" fill="#D4A437"/>
      <text x="32" y="14" fill="#FFFFFF" font-size="9" font-weight="700" text-anchor="middle">1</text>
    </g>
    <!-- Backlog -->
    <g transform="translate(8,200)">
      <g transform="translate(10,10)" stroke="#6B6B6B" stroke-width="2" fill="none">
        <rect x="0" y="1" width="20" height="18" rx="2"/>
        <line x1="4" y1="6" x2="16" y2="6"/>
        <line x1="4" y1="11" x2="16" y2="11"/>
        <line x1="4" y1="16" x2="12" y2="16"/>
      </g>
    </g>
    <!-- Grid -->
    <g transform="translate(8,248)">
      <g transform="translate(10,10)" stroke="#6B6B6B" stroke-width="2" fill="none">
        <rect x="0" y="0" width="8" height="8"/><rect x="12" y="0" width="8" height="8"/>
        <rect x="0" y="12" width="8" height="8"/><rect x="12" y="12" width="8" height="8"/>
      </g>
    </g>
    <!-- Escalations -->
    <g transform="translate(8,296)">
      <g transform="translate(10,10)" stroke="#6B6B6B" stroke-width="2" fill="none">
        <path d="M10 0 L20 18 L0 18 Z"/>
        <line x1="10" y1="7" x2="10" y2="13"/>
      </g>
      <circle cx="32" cy="10" r="7" fill="#C84747"/>
      <text x="32" y="14" fill="#FFFFFF" font-size="9" font-weight="700" text-anchor="middle">3</text>
    </g>
    <!-- Project Config -->
    <g transform="translate(8,344)">
      <g transform="translate(10,10)" stroke="#6B6B6B" stroke-width="2" fill="none">
        <circle cx="10" cy="10" r="4"/>
        <path d="M10 0 v3 M10 17 v3 M0 10 h3 M17 10 h3"/>
      </g>
    </g>
    <!-- Settings -->
    <g transform="translate(8,392)">
      <g transform="translate(10,10)" stroke="#6B6B6B" stroke-width="2" fill="none">
        <circle cx="10" cy="10" r="3"/>
        <circle cx="10" cy="10" r="8" stroke-dasharray="2 2"/>
      </g>
    </g>
  </g>

  <!-- =============== AGENDA PANE (left, 360) =============== -->
  <g id="agenda">
    <rect x="56" y="92" width="360" height="1108" fill="#FFFFFF"/>
    <line x1="416" y1="92" x2="416" y2="1200" stroke="#E5E0D5"/>

    <!-- Header -->
    <g transform="translate(76,112)">
      <text x="0" y="18" class="txt" font-size="18" font-weight="700">Agenda</text>
      <text x="0" y="38" class="muted" font-size="12">5 items  ·  2 decided  ·  1 active  ·  2 queued</text>
      <!-- mini kanban tabs -->
      <g transform="translate(0,52)" font-size="11" font-weight="600">
        <g><rect width="72" height="24" rx="4" fill="#F5EFE0"/><text x="36" y="16" class="txt" text-anchor="middle">Queued · 2</text></g>
        <g transform="translate(78,0)"><rect width="72" height="24" rx="4" fill="#EAF2FB" stroke="#3B82C9"/><text x="36" y="16" fill="#2A4460" text-anchor="middle">Active · 1</text></g>
        <g transform="translate(156,0)"><rect width="80" height="24" rx="4" fill="#E7F1EA"/><text x="40" y="16" fill="#24603C" text-anchor="middle">Decided · 2</text></g>
        <g transform="translate(240,0)"><rect width="78" height="24" rx="4" fill="#F5EFE0"/><text x="39" y="16" class="muted" text-anchor="middle">Deferred · 0</text></g>
      </g>
    </g>

    <!-- Section: Decided -->
    <g transform="translate(76,212)">
      <text x="0" y="0" class="muted" font-size="11" letter-spacing="0.5" font-weight="600">DECIDED</text>
    </g>

    <!-- Item 1 (decided) -->
    <g transform="translate(76,224)">
      <rect width="320" height="72" rx="10" fill="#F7FBF7" stroke="#D1E4D6"/>
      <g transform="translate(14,14)">
        <circle cx="8" cy="8" r="8" fill="#5A9E6F"/>
        <path d="M4 8 L7 11 L12 5" stroke="#FFFFFF" stroke-width="2" fill="none"/>
      </g>
      <text x="40" y="28" class="txt" font-size="12" font-weight="600">mk-e2.4 session stale</text>
      <text x="40" y="44" class="muted" font-size="11">● stale_session  ·  MEDIUM  ·  Witness</text>
      <text x="40" y="60" fill="#24603C" font-size="11" font-weight="600">Ratified: restart worker — 1m ago</text>
    </g>

    <!-- Item 2 (decided) -->
    <g transform="translate(76,306)">
      <rect width="320" height="72" rx="10" fill="#F7FBF7" stroke="#D1E4D6"/>
      <g transform="translate(14,14)">
        <circle cx="8" cy="8" r="8" fill="#5A9E6F"/>
        <path d="M4 8 L7 11 L12 5" stroke="#FFFFFF" stroke-width="2" fill="none"/>
      </g>
      <text x="40" y="28" class="txt" font-size="12" font-weight="600">Sprint placement for mk-e5</text>
      <text x="40" y="44" class="muted" font-size="11">◉ hitl_question  ·  from PM (suspended)</text>
      <text x="40" y="60" fill="#24603C" font-size="11" font-weight="600">Ratified: stage in parallel group A</text>
    </g>

    <!-- Section: Active -->
    <g transform="translate(76,400)">
      <text x="0" y="0" fill="#2A4460" font-size="11" letter-spacing="0.5" font-weight="600">ACTIVE</text>
    </g>

    <!-- Item 3 (active — highlighted) -->
    <g transform="translate(76,412)">
      <rect width="320" height="100" rx="10" fill="#EAF2FB" stroke="#3B82C9" stroke-width="2"/>
      <g transform="translate(14,14)">
        <circle cx="8" cy="8" r="8" fill="#C84747"/>
        <text x="8" y="12" fill="#FFFFFF" font-size="11" font-weight="700" text-anchor="middle">!</text>
      </g>
      <text x="40" y="28" class="txt" font-size="13" font-weight="700">mk-e6 Pocket API v1 deprecated</text>
      <text x="40" y="44" fill="#C84747" font-size="11" font-weight="600">● adaptor_degraded  ·  HIGH</text>
      <text x="40" y="60" class="muted" font-size="11">Code Reviewer Coach (perspective)</text>
      <text x="40" y="80" class="mono muted" font-size="10">discussing now  ·  3 options on table</text>
      <g transform="translate(260,70)">
        <rect width="50" height="18" rx="4" fill="#3B82C9"/>
        <text x="25" y="12" fill="#FFFFFF" font-size="10" font-weight="600" text-anchor="middle">active</text>
      </g>
    </g>

    <!-- Section: Queued -->
    <g transform="translate(76,536)">
      <text x="0" y="0" class="muted" font-size="11" letter-spacing="0.5" font-weight="600">QUEUED</text>
    </g>

    <!-- Item 4 -->
    <g transform="translate(76,548)">
      <rect width="320" height="72" rx="10" fill="#FFFFFF" stroke="#E5E0D5"/>
      <g transform="translate(14,14)">
        <circle cx="8" cy="8" r="8" fill="#C84747"/>
      </g>
      <text x="40" y="28" class="txt" font-size="12" font-weight="600">mk-e8 auth-surface Security Purview</text>
      <text x="40" y="44" fill="#C84747" font-size="11" font-weight="600">● purview_violation  ·  HIGH</text>
      <text x="40" y="60" class="muted" font-size="11">Security Manager  ·  blocking Stage</text>
    </g>

    <!-- Item 5 -->
    <g transform="translate(76,630)">
      <rect width="320" height="64" rx="10" fill="#FFFFFF" stroke="#E5E0D5"/>
      <g transform="translate(14,14)">
        <text x="8" y="12" fill="#C9A878" font-size="16" font-weight="700" text-anchor="middle">★</text>
      </g>
      <text x="40" y="28" class="txt" font-size="12" font-weight="600">Review mk-e2 web UI progress</text>
      <text x="40" y="44" class="muted" font-size="11">★ user-added  ·  before EOD</text>
      <text x="40" y="60" class="muted" font-size="10" font-style="italic">added by Mike at walk start</text>
    </g>

    <!-- Decide shortcuts -->
    <g transform="translate(76,720)">
      <text x="0" y="0" class="muted" font-size="11" letter-spacing="0.5" font-weight="600">KEYBOARD</text>
      <g transform="translate(0,10)" font-size="11">
        <text x="0" y="14" class="txt"><tspan class="mono" font-weight="700">J / K</tspan>  navigate agenda</text>
        <text x="0" y="32" class="txt"><tspan class="mono" font-weight="700">R</tspan>  Ratify</text>
        <text x="0" y="50" class="txt"><tspan class="mono" font-weight="700">M</tspan>  Modify</text>
        <text x="0" y="68" class="txt"><tspan class="mono" font-weight="700">X</tspan>  Reject</text>
        <text x="0" y="86" class="txt"><tspan class="mono" font-weight="700">D</tspan>  Defer</text>
      </g>
    </g>
  </g>

  <!-- =============== CHAT PANE (right) =============== -->
  <g id="chat">
    <rect x="416" y="92" width="1504" height="988" fill="#FAFAF7"/>

    <!-- Active-item framing -->
    <g transform="translate(440,116)">
      <rect width="1456" height="72" rx="12" fill="#FFFFFF" stroke="#E5E0D5"/>
      <text x="24" y="30" class="muted" font-size="12" letter-spacing="0.5" font-weight="600">AGENDA #3  ·  ACTIVE</text>
      <text x="24" y="54" class="txt" font-size="18" font-weight="700">mk-e6 Pocket API v1 deprecated</text>
      <text x="320" y="54" fill="#C84747" font-size="12" font-weight="600">● adaptor_degraded</text>
      <text x="478" y="54" class="muted" font-size="12">HIGH  ·  raised by Code Reviewer Coach 8m ago</text>
      <g transform="translate(1360,24)">
        <rect width="76" height="24" rx="6" fill="#FFFFFF" stroke="#E5E0D5"/>
        <text x="38" y="16" class="txt" font-size="11" font-weight="600" text-anchor="middle">Open bead</text>
      </g>
    </g>

    <!-- PM framing turn -->
    <g transform="translate(440,212)">
      <!-- speaker badge -->
      <g>
        <rect width="32" height="32" rx="16" fill="#F0EAE0"/>
        <text x="16" y="22" fill="#5A4519" font-size="16" font-weight="700" text-anchor="middle">📋</text>
      </g>
      <text x="44" y="12" class="txt" font-size="13" font-weight="700">Project Manager <tspan class="muted" font-weight="400" font-size="12">·  Coach  ·  12s ago  ·  $0.012</tspan></text>

      <g transform="translate(44,22)">
        <rect width="1412" height="212" rx="10" fill="#FFFFFF" stroke="#E5E0D5"/>
        <g transform="translate(20,20)" fill="#2B2B2B" font-size="13">
          <text x="0" y="0">Pocket retired their v1 API last week. <tspan class="mono" font-weight="700">mk-e6</tspan> as scoped assumes v1. Three options I see:</text>
          <text x="0" y="42" font-weight="700">(a)</text>
          <text x="28" y="42">Update <tspan class="mono" font-weight="700">mk-e6</tspan> to target Pocket v2 — shape is similar; adds ~8k tokens to the epic.</text>
          <text x="0" y="74" font-weight="700">(b)</text>
          <text x="28" y="74">Defer <tspan class="mono" font-weight="700">mk-e6</tspan>; focus on Raindrop-only import first — smaller scope, ships sooner.</text>
          <text x="0" y="106" font-weight="700">(c)</text>
          <text x="28" y="106">Cancel <tspan class="mono" font-weight="700">mk-e6</tspan> and file a fresh <tspan class="mono" font-weight="700">raindrop_import</tspan> epic.</text>
          <text x="0" y="146" class="muted">My read: (a) keeps scope discipline and matches your Execution value. I lean (a).</text>
          <text x="0" y="168" class="muted" font-size="12">Consulted Architect, Deployment Engineer, Documentarian (perspectives inline below).</text>
        </g>
      </g>
    </g>

    <!-- Perspective: Architect (inset quote) -->
    <g transform="translate(504,464)">
      <rect width="1392" height="42" rx="8" fill="#FAFAF7"/>
      <rect x="0" y="0" width="3" height="42" fill="#8B6FB3"/>
      <text x="16" y="18" class="txt" font-size="12" font-weight="600">📐 Architect <tspan class="muted" font-weight="400">· Coach · perspective</tspan></text>
      <text x="16" y="34" class="txt" font-size="12">"Option (a) keeps scope discipline; Pocket v2 has similar shape. Migration is mostly rename + pagination."</text>
    </g>

    <!-- Perspective: Deployment Engineer -->
    <g transform="translate(504,516)">
      <rect width="1392" height="42" rx="8" fill="#FAFAF7"/>
      <rect x="0" y="0" width="3" height="42" fill="#3B5B7A"/>
      <text x="16" y="18" class="txt" font-size="12" font-weight="600">🚢 Deployment Engineer <tspan class="muted" font-weight="400">· Manager · dormant-Purview</tspan></text>
      <text x="16" y="34" class="txt" font-size="12">"Option (b) ships faster but fragments the import story. Users won't see Pocket support v1 → v2 transition."</text>
    </g>

    <!-- Perspective: Documentarian -->
    <g transform="translate(504,568)">
      <rect width="1392" height="42" rx="8" fill="#FAFAF7"/>
      <rect x="0" y="0" width="3" height="42" fill="#8B6FB3"/>
      <text x="16" y="18" class="txt" font-size="12" font-weight="600">📚 Documentarian <tspan class="muted" font-weight="400">· Coach · perspective</tspan></text>
      <text x="16" y="34" class="txt" font-size="12">"Whichever path, decisions-log needs an entry within 24h per freshness guardrail."</text>
    </g>

    <!-- "2 more perspectives" collapse hint -->
    <g transform="translate(504,620)">
      <text x="0" y="14" class="muted" font-size="11" font-style="italic">2 more perspectives (QA, Security) collapsed  ·  <tspan fill="#3B5B7A" font-weight="600" text-decoration="underline">expand all</tspan></text>
    </g>

    <!-- Suggested actions row -->
    <g transform="translate(440,664)">
      <text x="0" y="0" class="muted" font-size="11" letter-spacing="0.5" font-weight="600">PM SUGGESTS</text>
    </g>

    <g transform="translate(440,680)" font-size="13" font-weight="600">
      <!-- Ratify (a) — primary, highlighted -->
      <g id="primary-cta">
        <rect width="380" height="56" rx="10" fill="#3B5B7A"/>
        <rect x="-3" y="-3" width="386" height="62" rx="12" fill="none" stroke="#D4A437" stroke-width="3"/>
        <text x="20" y="24" fill="#FFFFFF">Ratify (a)  ·  Update mk-e6 to v2</text>
        <text x="20" y="44" fill="#CDE0F2" font-weight="400" font-size="11">Apply nonce-gated · ~$0.00 · keystroke <tspan class="mono" font-weight="700">R</tspan></text>
      </g>

      <g transform="translate(400,0)">
        <rect width="240" height="56" rx="10" fill="#FFFFFF" stroke="#3B5B7A"/>
        <text x="20" y="24" fill="#3B5B7A">Ratify (b)  ·  Defer mk-e6</text>
        <text x="20" y="44" class="muted" font-weight="400" font-size="11">Smaller scope; Raindrop-first</text>
      </g>

      <g transform="translate(660,0)">
        <rect width="180" height="56" rx="10" fill="#FFFFFF" stroke="#E5E0D5"/>
        <text x="20" y="24" class="txt">Modify</text>
        <text x="20" y="44" class="muted" font-weight="400" font-size="11">Edit scope inline</text>
        <text x="160" y="16" class="muted mono" font-weight="700" font-size="11">M</text>
      </g>

      <g transform="translate(860,0)">
        <rect width="160" height="56" rx="10" fill="#FFFFFF" stroke="#E5E0D5"/>
        <text x="20" y="24" class="txt">Reject</text>
        <text x="20" y="44" class="muted" font-weight="400" font-size="11">Leave as-is</text>
        <text x="140" y="16" class="muted mono" font-weight="700" font-size="11">X</text>
      </g>

      <g transform="translate(1040,0)">
        <rect width="180" height="56" rx="10" fill="#FFFFFF" stroke="#E5E0D5"/>
        <text x="20" y="24" class="txt">Defer decision</text>
        <text x="20" y="44" class="muted" font-weight="400" font-size="11">Send to backlog review</text>
        <text x="160" y="16" class="muted mono" font-weight="700" font-size="11">D</text>
      </g>

      <g transform="translate(1240,0)">
        <rect width="220" height="56" rx="10" fill="#FFFFFF" stroke="#E5E0D5"/>
        <text x="20" y="24" class="txt">Consult another persona…</text>
        <text x="20" y="44" class="muted" font-weight="400" font-size="11">Ask Security or QA</text>
      </g>
    </g>

    <!-- Cursor hovering on primary CTA -->
    <g id="cursor" transform="translate(610,724)">
      <path d="M0 0 L0 22 L6 17 L10 24 L13 22 L9 15 L17 15 Z" fill="#2B2B2B" stroke="#FFFFFF" stroke-width="1.2"/>
      <g transform="translate(20,16)">
        <rect width="170" height="34" rx="6" fill="#2B2B2B"/>
        <text x="85" y="14" fill="#FFFFFF" font-size="11" font-weight="600" text-anchor="middle">Apply to workspace</text>
        <text x="85" y="28" fill="#B8B8B8" font-size="10" text-anchor="middle">Confirms with nonce · supervised mode</text>
      </g>
    </g>

    <!-- User turn (Mike) -->
    <g transform="translate(440,820)">
      <g transform="translate(1408,0)">
        <rect width="32" height="32" rx="16" fill="#3B5B7A"/>
        <text x="16" y="22" fill="#FFFFFF" font-size="13" font-weight="700" text-anchor="middle">M</text>
      </g>
      <text x="1236" y="12" class="txt" font-size="13" font-weight="700" text-anchor="end">Mike <tspan class="muted" font-weight="400" font-size="12">·  operator  ·  4s ago</tspan></text>
      <g transform="translate(880,22)">
        <rect width="524" height="34" rx="10" fill="#EAF2FB" stroke="#3B82C9"/>
        <text x="18" y="22" class="txt" font-size="13">Lean (a). What's the risk if Pocket v2 changes again?</text>
      </g>
    </g>

    <!-- PM in-flight spinner -->
    <g transform="translate(440,880)">
      <g>
        <rect width="32" height="32" rx="16" fill="#F0EAE0"/>
        <text x="16" y="22" fill="#5A4519" font-size="16" font-weight="700" text-anchor="middle">📋</text>
      </g>
      <text x="44" y="12" class="txt" font-size="13" font-weight="700">Project Manager <tspan class="muted" font-weight="400" font-size="12">·  typing…</tspan></text>
      <g transform="translate(44,22)">
        <rect width="300" height="34" rx="10" fill="#FFFFFF" stroke="#E5E0D5"/>
        <circle cx="20" cy="17" r="3" fill="#3B5B7A"/>
        <circle cx="34" cy="17" r="3" fill="#3B5B7A" opacity="0.6"/>
        <circle cx="48" cy="17" r="3" fill="#3B5B7A" opacity="0.3"/>
        <text x="70" y="22" class="muted" font-size="12">consulting Architect for risk read…</text>
      </g>
    </g>
  </g>

  <!-- =============== PM PANEL (walk chat status at bottom) =============== -->
  <g id="pm-panel">
    <rect x="56" y="1080" width="1864" height="120" fill="#FFFFFF"/>
    <line x1="56" y1="1080" x2="1920" y2="1080" stroke="#E5E0D5"/>
    <g transform="translate(440,1094)">
      <rect width="36" height="24" rx="6" fill="#FFF6D6"/>
      <text x="18" y="17" fill="#5A4519" font-size="14" font-weight="700" text-anchor="middle">📋</text>
      <text x="48" y="17" class="txt" font-size="13" font-weight="700">PM panel  ·  walk mode</text>
      <text x="210" y="17" class="muted" font-size="12">chat surface pinned above — input lives here during walks</text>
      <text x="1432" y="17" class="muted" font-size="12" text-anchor="end">$0.04 this walk  ·  6m elapsed  ·  cost/turn avg $0.008</text>
    </g>

    <g transform="translate(440,1128)">
      <rect width="1456" height="44" rx="10" fill="#FAFAF7" stroke="#E5E0D5"/>
      <text x="18" y="28" class="muted" font-size="13" font-style="italic">Type to reply during walk…  (⌘↵ to send)</text>
      <g transform="translate(1376,8)">
        <rect width="72" height="28" rx="6" fill="#3B5B7A"/>
        <text x="36" y="18" fill="#FFFFFF" font-size="12" font-weight="600" text-anchor="middle">Send ⌘↵</text>
      </g>
    </g>
  </g>
</svg>
