<svg xmlns="http://www.w3.org/2000/svg" viewBox="0 0 1920 1200" font-family="'Inter', -apple-system, BlinkMacSystemFont, 'Segoe UI', sans-serif">
  <title>Plan view — staging UX. Epics grouped by parallel-group, drag-to-scope in progress.</title>
  <defs>
    <style>
      .txt { fill: #2B2B2B; }
      .muted { fill: #6B6B6B; }
      .mono { font-family: 'JetBrains Mono', 'SF Mono', 'Menlo', 'Consolas', monospace; }
    </style>
  </defs>

  <rect width="1920" height="1200" fill="#FAFAF7"/>

  <!-- =============== TOP BAR =============== -->
  <g id="topbar">
    <rect width="1920" height="56" fill="#FFFFFF"/>
    <line x1="0" y1="56" x2="1920" y2="56" stroke="#E5E0D5"/>
    <g transform="translate(18,18)">
      <path d="M0 10 l6 -6 M0 10 l6 6 M0 10 h20" stroke="#6B6B6B" stroke-width="2" fill="none"/>
    </g>
    <g transform="translate(60,16)">
      <rect width="140" height="24" rx="6" fill="#F5EFE0" stroke="#E5E0D5"/>
      <text x="12" y="17" class="txt" font-size="13" font-weight="600">marker</text>
      <path d="M120 10 l4 5 4 -5" stroke="#6B6B6B" stroke-width="1.5" fill="none"/>
    </g>
    <g transform="translate(212,16)">
      <rect width="96" height="24" rx="12" fill="#EAF2FB" stroke="#3B82C9"/>
      <circle cx="12" cy="12" r="4" fill="#3B82C9"/>
      <text x="22" y="16" fill="#2A4460" font-size="12" font-weight="600">supervised</text>
    </g>
    <g transform="translate(316,16)">
      <rect width="76" height="24" rx="12" fill="#F0EAE0" stroke="#C9A878"/>
      <text x="12" y="16" fill="#5A4519" font-size="12" font-weight="600">building</text>
    </g>
    <g transform="translate(404,12)">
      <text x="0" y="12" class="muted" font-size="10" font-weight="600" letter-spacing="0.5">AGENTS</text>
      <rect x="0" y="16" width="120" height="6" rx="3" fill="#E5E0D5"/>
      <rect x="0" y="16" width="27.6" height="6" rx="3" fill="#3B5B7A"/>
      <text x="126" y="22" class="txt" font-size="11" font-weight="600">23%</text>
      <text x="160" y="12" class="muted" font-size="10" font-weight="600" letter-spacing="0.5">ADVISORS</text>
      <rect x="160" y="16" width="120" height="6" rx="3" fill="#E5E0D5"/>
      <rect x="160" y="16" width="7.2" height="6" rx="3" fill="#8B6FB3"/>
      <text x="286" y="22" class="txt" font-size="11" font-weight="600">6%</text>
    </g>
    <g transform="translate(1260,16)">
      <rect width="240" height="24" rx="6" fill="#FAFAF7" stroke="#E5E0D5"/>
      <circle cx="14" cy="12" r="5" fill="none" stroke="#6B6B6B" stroke-width="1.5"/>
      <text x="32" y="16" class="muted" font-size="12">Search or jump to…</text>
      <text x="200" y="16" class="muted mono" font-size="11">⌘K</text>
    </g>
    <g transform="translate(1520,16)">
      <rect width="120" height="24" rx="6" fill="#FFF6D6" stroke="#D4A437"/>
      <circle cx="13" cy="12" r="3" fill="#D4A437"/>
      <text x="22" y="16" fill="#5A4519" font-size="12" font-weight="600">Walk active</text>
      <circle cx="104" cy="12" r="9" fill="#C84747"/>
      <text x="104" y="16" fill="#FFFFFF" font-size="11" font-weight="700" text-anchor="middle">3</text>
    </g>
    <g transform="translate(1656,16)">
      <rect width="84" height="24" rx="6" fill="#FFFFFF" stroke="#E5E0D5"/>
      <text x="10" y="16" class="txt" font-size="12" font-weight="600">PM</text>
      <rect x="40" y="7" width="18" height="10" rx="2" fill="none" stroke="#3B5B7A" stroke-width="1.5"/>
      <rect x="40" y="13" width="18" height="4" rx="1" fill="#3B5B7A"/>
    </g>
    <g transform="translate(1856,16)">
      <circle cx="12" cy="12" r="12" fill="#3B5B7A"/>
      <text x="12" y="16" fill="#FFFFFF" font-size="12" font-weight="700" text-anchor="middle">M</text>
    </g>
  </g>

  <!-- =============== EXPANDED SIDEBAR =============== -->
  <g id="sidebar">
    <rect x="0" y="56" width="220" height="1144" fill="#F5EFE0"/>
    <line x1="220" y1="56" x2="220" y2="1200" stroke="#E5E0D5"/>
    <g font-size="13" font-weight="600">
      <!-- Board -->
      <g transform="translate(16,76)">
        <rect width="188" height="40" rx="8" fill="transparent"/>
        <g transform="translate(12,10)" stroke="#2B2B2B" stroke-width="2" fill="none">
          <rect x="0" y="0" width="6" height="20"/><rect x="7" y="0" width="6" height="20"/><rect x="14" y="0" width="6" height="20"/>
        </g>
        <text x="48" y="26" class="txt">Board</text>
      </g>
      <!-- Gemba walks (active) -->
      <g transform="translate(16,124)">
        <rect width="188" height="40" rx="8" fill="#FFF6D6"/>
        <g transform="translate(12,10)" stroke="#5A4519" stroke-width="2" fill="none">
          <circle cx="10" cy="10" r="9"/>
          <path d="M10 3 v7 l5 3"/>
        </g>
        <text x="48" y="26" fill="#5A4519">Gemba walks</text>
        <circle cx="166" cy="20" r="9" fill="#D4A437"/>
        <text x="166" y="24" fill="#FFFFFF" font-size="11" font-weight="700" text-anchor="middle">1</text>
      </g>
      <!-- Backlog -->
      <g transform="translate(16,172)">
        <g transform="translate(12,10)" stroke="#2B2B2B" stroke-width="2" fill="none">
          <rect x="0" y="1" width="20" height="18" rx="2"/>
          <line x1="4" y1="6" x2="16" y2="6"/><line x1="4" y1="11" x2="16" y2="11"/>
        </g>
        <text x="48" y="26" class="txt">Backlog</text>
      </g>
      <!-- Grid -->
      <g transform="translate(16,220)">
        <g transform="translate(12,10)" stroke="#2B2B2B" stroke-width="2" fill="none">
          <rect x="0" y="0" width="8" height="8"/><rect x="12" y="0" width="8" height="8"/>
          <rect x="0" y="12" width="8" height="8"/><rect x="12" y="12" width="8" height="8"/>
        </g>
        <text x="48" y="26" class="txt">Grid</text>
      </g>
      <!-- Escalations -->
      <g transform="translate(16,268)">
        <g transform="translate(12,10)" stroke="#2B2B2B" stroke-width="2" fill="none">
          <path d="M10 0 L20 18 L0 18 Z"/>
          <line x1="10" y1="7" x2="10" y2="13"/>
        </g>
        <text x="48" y="26" class="txt">Escalations</text>
        <circle cx="182" cy="20" r="9" fill="#C84747"/>
        <text x="182" y="24" fill="#FFFFFF" font-size="11" font-weight="700" text-anchor="middle">3</text>
      </g>
      <!-- Project Config -->
      <g transform="translate(16,316)">
        <g transform="translate(12,10)" stroke="#2B2B2B" stroke-width="2" fill="none">
          <circle cx="10" cy="10" r="4"/>
          <path d="M10 0 v3 M10 17 v3 M0 10 h3 M17 10 h3"/>
        </g>
        <text x="48" y="26" class="txt">Project Config</text>
      </g>
      <!-- Settings -->
      <g transform="translate(16,364)">
        <g transform="translate(12,10)" stroke="#2B2B2B" stroke-width="2" fill="none">
          <circle cx="10" cy="10" r="3"/>
          <circle cx="10" cy="10" r="8" stroke-dasharray="2 2"/>
        </g>
        <text x="48" y="26" class="txt">Settings</text>
      </g>

      <!-- Divider -->
      <line x1="16" y1="428" x2="204" y2="428" stroke="#E5E0D5"/>
      <text x="16" y="448" class="muted" font-size="11" letter-spacing="0.5" font-weight="600">DEEP LINKS</text>

      <!-- Plan (active) -->
      <g transform="translate(16,460)">
        <rect width="188" height="34" rx="6" fill="#3B5B7A"/>
        <text x="16" y="22" fill="#FFFFFF">Plan</text>
        <text x="172" y="22" fill="#CDE0F2" font-size="11" text-anchor="end">⌘P P</text>
      </g>
      <g transform="translate(16,500)"><text x="16" y="22" class="muted">Insights</text></g>
      <g transform="translate(16,532)"><text x="16" y="22" class="muted">Graph</text></g>
      <g transform="translate(16,564)"><text x="16" y="22" class="muted">Capabilities</text></g>
      <g transform="translate(16,596)"><text x="16" y="22" class="muted">Personas</text></g>
      <g transform="translate(16,628)"><text x="16" y="22" class="muted">Checkpoints</text></g>
      <g transform="translate(16,660)"><text x="16" y="22" class="muted">QA Health</text></g>
      <g transform="translate(16,692)"><text x="16" y="22" class="muted">QA Gates</text></g>
    </g>

    <!-- Workspace footer -->
    <g transform="translate(16,1130)">
      <rect width="188" height="52" rx="8" fill="#FFFFFF" stroke="#E5E0D5"/>
      <text x="12" y="20" class="txt" font-size="12" font-weight="700">marker</text>
      <text x="12" y="36" class="muted" font-size="10">Beads  ·  Gas Town</text>
      <text x="12" y="48" class="muted" font-size="10">Phase: building</text>
    </g>
  </g>

  <!-- =============== CONTENT =============== -->
  <g id="content">

    <!-- Header row -->
    <g transform="translate(252,80)">
      <text x="0" y="24" class="txt" font-size="28" font-weight="700">Plan</text>
      <text x="120" y="28" class="muted" font-size="14">what's queued to run, and in what order</text>

      <!-- Primary action button top-right (position at 1920-252-4 = 1664 within content, but drawn relative to content x=252) -->
      <g transform="translate(1356,0)">
        <rect width="312" height="56" rx="10" fill="#3B5B7A"/>
        <text x="20" y="24" fill="#FFFFFF" font-size="15" font-weight="700">Execute all Staged</text>
        <g transform="translate(186,8)">
          <rect width="118" height="40" rx="6" fill="#2A4460"/>
          <text x="59" y="18" fill="#FFFFFF" font-size="11" text-anchor="middle">2 Epics</text>
          <text x="59" y="32" fill="#CDE0F2" font-size="11" text-anchor="middle">~$2.40</text>
        </g>
      </g>
    </g>

    <!-- Cost preview row -->
    <g transform="translate(252,140)">
      <rect width="1616" height="56" rx="10" fill="#FFFFFF" stroke="#E5E0D5"/>
      <text x="20" y="22" class="muted" font-size="11" font-weight="600" letter-spacing="0.5">TOTAL COST ESTIMATE</text>
      <text x="20" y="44" class="txt" font-size="18" font-weight="700">$2.40</text>
      <text x="90" y="44" class="muted" font-size="14">·  ~142k tokens  ·  ~3h wall-clock  ·  2 parallel workers</text>
      <!-- stacked bar mini -->
      <g transform="translate(960,20)">
        <text x="0" y="-4" class="muted" font-size="10" font-weight="600" letter-spacing="0.5">SHARE OF SPRINT BUDGET</text>
        <rect x="0" y="0" width="480" height="14" rx="7" fill="#E5E0D5"/>
        <rect x="0" y="0" width="112" height="14" rx="7" fill="#3B5B7A"/>
        <rect x="112" y="0" width="62" height="14" fill="#D4A437"/>
        <text x="488" y="12" class="txt" font-size="11" font-weight="600">23% + 13%</text>
      </g>
    </g>

    <!-- ============ GROUP A (parallel) ============ -->
    <g transform="translate(252,220)">
      <!-- Group cluster outline -->
      <rect width="1616" height="300" rx="16" fill="#FFFFFF" stroke="#3B82C9" stroke-width="2"/>
      <!-- Header -->
      <g transform="translate(20,20)">
        <circle cx="14" cy="14" r="14" fill="#3B82C9"/>
        <text x="14" y="19" fill="#FFFFFF" font-size="14" font-weight="700" text-anchor="middle">A</text>
        <text x="38" y="20" class="txt" font-size="16" font-weight="700">Parallel Group A</text>
        <text x="210" y="20" class="muted" font-size="13">· can run concurrently · file-space disjoint · 2 members</text>
        <g transform="translate(1500,0)">
          <text x="76" y="18" class="muted" font-size="11" text-anchor="end">parallel safety:</text>
          <text x="80" y="18" fill="#24603C" font-size="12" font-weight="700">verified ✓</text>
        </g>
      </g>

      <!-- Row: mk-e3 staged -->
      <g transform="translate(20,56)">
        <rect width="1576" height="100" rx="10" fill="#FAFAF7" stroke="#E5E0D5"/>
        <!-- drag handle -->
        <g transform="translate(14,40)" stroke="#6B6B6B" stroke-width="2" fill="none">
          <circle cx="2" cy="0" r="1.5" fill="#6B6B6B" stroke="none"/>
          <circle cx="2" cy="6" r="1.5" fill="#6B6B6B" stroke="none"/>
          <circle cx="2" cy="12" r="1.5" fill="#6B6B6B" stroke="none"/>
          <circle cx="8" cy="0" r="1.5" fill="#6B6B6B" stroke="none"/>
          <circle cx="8" cy="6" r="1.5" fill="#6B6B6B" stroke="none"/>
          <circle cx="8" cy="12" r="1.5" fill="#6B6B6B" stroke="none"/>
        </g>
        <rect x="36" y="0" width="4" height="100" rx="2" fill="#C87947"/>
        <text x="52" y="30" class="mono muted" font-size="11" font-weight="600">mk-e3 · P1</text>
        <text x="52" y="56" class="txt" font-size="16" font-weight="700">CLI (marker binary)</text>
        <text x="52" y="78" class="muted" font-size="12">4/4 ready · Staged · file sig: <tspan class="mono" fill="#2A4460">cmd/marker/*</tspan></text>

        <!-- readiness + budget block -->
        <g transform="translate(760,30)">
          <text x="0" y="0" class="muted" font-size="10" letter-spacing="0.5" font-weight="600">READINESS</text>
          <g transform="translate(0,8)">
            <rect width="16" height="16" rx="3" fill="#5A9E6F"/>
            <rect x="20" y="0" width="16" height="16" rx="3" fill="#5A9E6F"/>
            <rect x="40" y="0" width="16" height="16" rx="3" fill="#5A9E6F"/>
            <rect x="60" y="0" width="16" height="16" rx="3" fill="#5A9E6F"/>
          </g>
          <text x="86" y="20" class="txt" font-size="12" font-weight="600">4/4</text>
        </g>

        <g transform="translate(900,30)">
          <text x="0" y="0" class="muted" font-size="10" letter-spacing="0.5" font-weight="600">EPIC TOKEN BUDGET</text>
          <rect x="0" y="8" width="300" height="8" rx="4" fill="#E5E0D5"/>
          <rect x="0" y="8" width="75" height="8" rx="4" fill="#5A9E6F"/>
          <text x="310" y="16" class="muted" font-size="11">~60k est · 25%</text>
        </g>
        <text x="900" y="82" class="muted" font-size="11">Worker type: CLI / Go · runner: polecat</text>

        <!-- Cost and unstage -->
        <g transform="translate(1348,30)">
          <text x="0" y="0" class="muted" font-size="10" letter-spacing="0.5" font-weight="600">EST COST</text>
          <text x="0" y="24" class="txt" font-size="18" font-weight="700">$1.20</text>
        </g>
        <g transform="translate(1516,34)">
          <rect width="36" height="32" rx="6" fill="#FFFFFF" stroke="#E5E0D5"/>
          <path d="M12 12 L24 24 M24 12 L12 24" stroke="#6B6B6B" stroke-width="1.5"/>
          <title>Unstage</title>
        </g>
      </g>

      <!-- Row: mk-e2 (running) -->
      <g transform="translate(20,168)">
        <rect width="1576" height="100" rx="10" fill="#EAF2FB" stroke="#3B82C9"/>
        <!-- running indicator stripe -->
        <g transform="translate(14,40)" stroke="#3B82C9" stroke-width="2" fill="none">
          <circle cx="2" cy="0" r="1.5" fill="#3B82C9" stroke="none"/>
          <circle cx="2" cy="6" r="1.5" fill="#3B82C9" stroke="none"/>
          <circle cx="2" cy="12" r="1.5" fill="#3B82C9" stroke="none"/>
          <circle cx="8" cy="0" r="1.5" fill="#3B82C9" stroke="none"/>
          <circle cx="8" cy="6" r="1.5" fill="#3B82C9" stroke="none"/>
          <circle cx="8" cy="12" r="1.5" fill="#3B82C9" stroke="none"/>
        </g>
        <rect x="36" y="0" width="4" height="100" rx="2" fill="#C84747"/>
        <text x="52" y="30" class="mono muted" font-size="11" font-weight="600">mk-e2 · P0</text>
        <g transform="translate(128,18)">
          <rect width="96" height="18" rx="9" fill="#FFFFFF" stroke="#3B82C9"/>
          <circle cx="12" cy="9" r="3" fill="#3B82C9"/>
          <text x="22" y="13" fill="#2A4460" font-size="10" font-weight="600">running now</text>
        </g>
        <text x="52" y="56" class="txt" font-size="16" font-weight="700">Web UI (Next.js + Tailwind)</text>
        <text x="52" y="78" class="muted" font-size="12">3 active workers · file sig: <tspan class="mono" fill="#2A4460">web/src/*</tspan> · stale worker on mk-e2.4</text>

        <g transform="translate(760,30)">
          <text x="0" y="0" class="muted" font-size="10" letter-spacing="0.5" font-weight="600">READINESS</text>
          <g transform="translate(0,8)">
            <rect width="16" height="16" rx="3" fill="#5A9E6F"/>
            <rect x="20" y="0" width="16" height="16" rx="3" fill="#5A9E6F"/>
            <rect x="40" y="0" width="16" height="16" rx="3" fill="#3B82C9"/>
            <rect x="60" y="0" width="16" height="16" rx="3" fill="#3B82C9"/>
            <rect x="80" y="0" width="16" height="16" rx="3" fill="#3B82C9"/>
            <rect x="100" y="0" width="16" height="16" rx="3" fill="#6B6B6B" opacity="0.4"/>
            <rect x="120" y="0" width="16" height="16" rx="3" fill="#6B6B6B" opacity="0.4"/>
          </g>
          <text x="146" y="20" class="txt" font-size="12" font-weight="600">2/7 done · 3 ip · 2 ready</text>
        </g>

        <g transform="translate(900,30)">
          <text x="0" y="0" class="muted" font-size="10" letter-spacing="0.5" font-weight="600">EPIC TOKEN BUDGET</text>
          <rect x="0" y="8" width="300" height="8" rx="4" fill="#E5E0D5"/>
          <rect x="0" y="8" width="186" height="8" rx="4" fill="#D4A437"/>
          <text x="310" y="16" class="muted" font-size="11">~87k / 140k · 62%</text>
        </g>
        <text x="900" y="82" class="muted" font-size="11">Live spend: $0.41 so far · projected: $1.12 more</text>

        <g transform="translate(1348,30)">
          <text x="0" y="0" class="muted" font-size="10" letter-spacing="0.5" font-weight="600">SPEND TO DATE</text>
          <text x="0" y="24" class="txt" font-size="18" font-weight="700">$0.41</text>
        </g>
      </g>
    </g>

    <!-- ============ GROUP B (eligible to merge into A) ============ -->
    <g transform="translate(252,544)">
      <rect width="1616" height="180" rx="16" fill="#FFFFFF" stroke="#C9A878" stroke-width="2" stroke-dasharray="6 4"/>
      <g transform="translate(20,20)">
        <circle cx="14" cy="14" r="14" fill="#C9A878"/>
        <text x="14" y="19" fill="#5A4519" font-size="14" font-weight="700" text-anchor="middle">B</text>
        <text x="38" y="20" class="txt" font-size="16" font-weight="700">Parallel Group B</text>
        <text x="202" y="20" class="muted" font-size="13">· eligible to merge into A · drag to combine · 1 member</text>
      </g>

      <!-- Row: mk-e5 (normal, not being dragged) -->
      <g transform="translate(20,56)" id="source-e5">
        <rect width="1576" height="100" rx="10" fill="#FAFAF7" stroke="#E5E0D5"/>
        <g transform="translate(14,40)" stroke="#6B6B6B" stroke-width="2" fill="none">
          <circle cx="2" cy="0" r="1.5" fill="#3B5B7A" stroke="none"/>
          <circle cx="2" cy="6" r="1.5" fill="#3B5B7A" stroke="none"/>
          <circle cx="2" cy="12" r="1.5" fill="#3B5B7A" stroke="none"/>
          <circle cx="8" cy="0" r="1.5" fill="#3B5B7A" stroke="none"/>
          <circle cx="8" cy="6" r="1.5" fill="#3B5B7A" stroke="none"/>
          <circle cx="8" cy="12" r="1.5" fill="#3B5B7A" stroke="none"/>
        </g>
        <rect x="36" y="0" width="4" height="100" rx="2" fill="#C87947"/>
        <!-- Dim this row since it's being dragged to A -->
        <g opacity="0.4">
          <text x="52" y="30" class="mono muted" font-size="11" font-weight="600">mk-e5 · P1</text>
          <text x="52" y="56" class="txt" font-size="16" font-weight="700">Full-text search</text>
          <text x="52" y="78" class="muted" font-size="12">3/3 ready · Next Up · file sig: <tspan class="mono" fill="#2A4460">internal/search/*</tspan></text>
          <g transform="translate(760,30)">
            <text x="0" y="0" class="muted" font-size="10" letter-spacing="0.5" font-weight="600">READINESS</text>
            <g transform="translate(0,8)">
              <rect width="16" height="16" rx="3" fill="#5A9E6F"/>
              <rect x="20" y="0" width="16" height="16" rx="3" fill="#5A9E6F"/>
              <rect x="40" y="0" width="16" height="16" rx="3" fill="#5A9E6F"/>
            </g>
            <text x="66" y="20" class="txt" font-size="12" font-weight="600">3/3</text>
          </g>
          <g transform="translate(900,30)">
            <text x="0" y="0" class="muted" font-size="10" letter-spacing="0.5" font-weight="600">EPIC TOKEN BUDGET</text>
            <rect x="0" y="8" width="300" height="8" rx="4" fill="#E5E0D5"/>
            <rect x="0" y="8" width="52" height="8" rx="4" fill="#5A9E6F"/>
            <text x="310" y="16" class="muted" font-size="11">~42k est · 17%</text>
          </g>
          <g transform="translate(1348,30)">
            <text x="0" y="0" class="muted" font-size="10" letter-spacing="0.5" font-weight="600">EST COST</text>
            <text x="0" y="24" class="txt" font-size="18" font-weight="700">$0.84</text>
          </g>
        </g>
        <text x="52" y="94" fill="#6B4A1A" font-size="11" font-style="italic">dragging to group A…</text>
      </g>
    </g>

    <!-- ============ NOT PARALLEL-SAFE WITH A ============ -->
    <g transform="translate(252,748)">
      <rect width="1616" height="180" rx="16" fill="#FFFFFF" stroke="#E5E0D5"/>
      <g transform="translate(20,20)">
        <circle cx="14" cy="14" r="14" fill="#F5EFE0" stroke="#C84747" stroke-width="2"/>
        <path d="M8 8 l12 12 M20 8 l-12 12" stroke="#C84747" stroke-width="2"/>
        <text x="38" y="20" class="txt" font-size="16" font-weight="700">Not parallel-safe with A</text>
        <text x="292" y="20" class="muted" font-size="13">· file-space overlap with mk-e3 (<tspan class="mono" fill="#2A4460">cmd/marker/*</tspan>)</text>
      </g>

      <!-- Row: mk-e4 -->
      <g transform="translate(20,56)">
        <rect width="1576" height="100" rx="10" fill="#FAFAF7" stroke="#E5E0D5"/>
        <g transform="translate(14,40)" stroke="#6B6B6B" stroke-width="2" fill="none">
          <circle cx="2" cy="0" r="1.5" fill="#6B6B6B" stroke="none"/>
          <circle cx="2" cy="6" r="1.5" fill="#6B6B6B" stroke="none"/>
          <circle cx="2" cy="12" r="1.5" fill="#6B6B6B" stroke="none"/>
          <circle cx="8" cy="0" r="1.5" fill="#6B6B6B" stroke="none"/>
          <circle cx="8" cy="6" r="1.5" fill="#6B6B6B" stroke="none"/>
          <circle cx="8" cy="12" r="1.5" fill="#6B6B6B" stroke="none"/>
        </g>
        <rect x="36" y="0" width="4" height="100" rx="2" fill="#C87947"/>
        <text x="52" y="30" class="mono muted" font-size="11" font-weight="600">mk-e4 · P1</text>
        <text x="52" y="56" class="txt" font-size="16" font-weight="700">Browser extension</text>
        <text x="52" y="78" class="muted" font-size="12">3/5 ready · 2 blocked · Next Up</text>

        <g transform="translate(760,30)">
          <text x="0" y="0" class="muted" font-size="10" letter-spacing="0.5" font-weight="600">READINESS</text>
          <g transform="translate(0,8)">
            <rect width="16" height="16" rx="3" fill="#5A9E6F"/>
            <rect x="20" y="0" width="16" height="16" rx="3" fill="#5A9E6F"/>
            <rect x="40" y="0" width="16" height="16" rx="3" fill="#5A9E6F"/>
            <rect x="60" y="0" width="16" height="16" rx="3" fill="#C84747"/>
            <rect x="80" y="0" width="16" height="16" rx="3" fill="#C84747"/>
          </g>
          <text x="106" y="20" class="txt" font-size="12" font-weight="600">3/5 · 2 blocked</text>
        </g>

        <g transform="translate(900,30)">
          <text x="0" y="0" class="muted" font-size="10" letter-spacing="0.5" font-weight="600">EPIC TOKEN BUDGET</text>
          <rect x="0" y="8" width="300" height="8" rx="4" fill="#E5E0D5"/>
          <rect x="0" y="8" width="50" height="8" rx="4" fill="#5A9E6F"/>
          <text x="310" y="16" class="muted" font-size="11">~40k est · 16%</text>
        </g>

        <g transform="translate(1348,30)">
          <text x="0" y="0" class="muted" font-size="10" letter-spacing="0.5" font-weight="600">BLOCKED BY</text>
          <text x="0" y="24" class="mono txt" font-size="13" font-weight="600">mk-e1 (cleared)</text>
        </g>
      </g>
    </g>

    <!-- ============ NEXT CANDIDATES ============ -->
    <g transform="translate(252,952)">
      <text x="0" y="16" class="muted" font-size="12" letter-spacing="0.5" font-weight="600">NEXT CANDIDATES</text>
      <rect x="0" y="28" width="1616" height="74" rx="12" fill="#FAFAF7" stroke="#E5E0D5" stroke-dasharray="4 3"/>

      <g transform="translate(16,44)">
        <rect x="0" y="0" width="4" height="44" rx="2" fill="#8B4F8F"/>
        <text x="16" y="16" class="mono muted" font-size="11" font-weight="600">mk-e7 · P2</text>
        <text x="16" y="38" class="txt" font-size="14" font-weight="700">PWA / mobile polish</text>
        <text x="200" y="38" class="muted" font-size="12">0/6 ready · Backlog · not yet stageable</text>
        <text x="560" y="38" fill="#6B4A1A" font-size="12">Stage when ready — needs DoD review</text>
      </g>

      <g transform="translate(1512,72)">
        <rect width="80" height="24" rx="6" fill="#FFFFFF" stroke="#E5E0D5"/>
        <text x="40" y="16" class="txt" font-size="11" font-weight="600" text-anchor="middle">Add DoD</text>
      </g>
    </g>
  </g>

  <!-- ================ CURSOR DRAGGING mk-e5 INTO GROUP A ================ -->
  <g id="dragging-ghost">
    <!-- Ghost version of mk-e5 floating near Group A with arrow indicating drop -->
    <g transform="translate(480,300)" opacity="0.95">
      <rect width="1200" height="80" rx="10" fill="#FFFFFF" stroke="#3B82C9" stroke-width="2"/>
      <rect x="0" y="0" width="4" height="80" rx="2" fill="#C87947"/>
      <text x="18" y="24" class="mono muted" font-size="11" font-weight="600">mk-e5 · P1</text>
      <text x="18" y="50" class="txt" font-size="15" font-weight="700">Full-text search</text>
      <text x="18" y="68" class="muted" font-size="11">3/3 ready · file sig: <tspan class="mono" fill="#2A4460">internal/search/*</tspan> · disjoint from mk-e3</text>
      <g transform="translate(900,22)">
        <rect width="144" height="32" rx="6" fill="#EAF2FB" stroke="#3B82C9"/>
        <text x="72" y="20" fill="#2A4460" font-size="12" font-weight="700" text-anchor="middle">Join Group A</text>
      </g>
    </g>

    <!-- Dashed motion path -->
    <path d="M 300 620 Q 700 500 1200 360" stroke="#3B82C9" stroke-width="2" stroke-dasharray="6 4" fill="none" opacity="0.6"/>

    <!-- Cursor -->
    <g transform="translate(1224,348)">
      <path d="M0 0 L0 22 L6 17 L10 24 L13 22 L9 15 L17 15 Z" fill="#2B2B2B" stroke="#FFFFFF" stroke-width="1.2"/>
    </g>
  </g>
</svg>
